<svg width="28" height="28" viewBox="0 0 28 28" fill="none" xmlns="http://www.w3.org/2000/svg">
<g clip-path="url(#clip0_5483_13904)">
<path d="M13.9986 0.560059C6.57579 0.560059 0.558594 6.57726 0.558594 14.0001C0.558594 21.4229 6.57579 27.4401 13.9986 27.4401C21.4214 27.4401 27.4386 21.4229 27.4386 14.0001C27.4386 6.57726 21.4214 0.560059 13.9986 0.560059ZM10.7086 19.5707H7.98699V10.8123H10.7086V19.5707ZM9.33099 9.73706C8.47139 9.73706 7.91559 9.12806 7.91559 8.37486C7.91559 7.60626 8.48819 7.01546 9.36599 7.01546C10.2438 7.01546 10.7814 7.60626 10.7982 8.37486C10.7982 9.12806 10.2438 9.73706 9.33099 9.73706ZM20.6486 19.5707H17.927V14.7169C17.927 13.5871 17.5322 12.8199 16.548 12.8199C15.7962 12.8199 15.3496 13.3393 15.1522 13.8391C15.0794 14.0169 15.0612 14.2689 15.0612 14.5195V19.5693H12.3382V13.6053C12.3382 12.5119 12.3032 11.5977 12.2668 10.8109H14.6314L14.756 12.0275H14.8106C15.169 11.4563 16.0468 10.6135 17.5154 10.6135C19.306 10.6135 20.6486 11.8133 20.6486 14.3921V19.5707Z" fill="url(#paint0_linear_5483_13904)"/>
</g>
<defs>
<linearGradient id="paint0_linear_5483_13904" x1="13.9986" y1="0.560059" x2="13.9986" y2="27.3603" gradientUnits="userSpaceOnUse">
<stop stop-color="#18ACFE"/>
<stop offset="1" stop-color="#0163E0"/>
</linearGradient>
<clipPath id="clip0_5483_13904">
<rect width="28" height="28" fill="white"/>
</clipPath>
</defs>
</svg>
